HIERARCHY
ROOT hip
{
	OFFSET 0.000000 0.000000 0.000000 
	CHANNELS 6 Xposition Yposition Zposition Xrotation Zrotation Yrotation
	JOINT abdomen
	{
		OFFSET 0.000000 3.402643 0.000000 
		CHANNELS 3 Xrotation Zrotation Yrotation
		JOINT chest
		{
			OFFSET 0.000000 8.438565 -0.680529 
			CHANNELS 3 Xrotation Zrotation Yrotation
			JOINT neck
			{
				OFFSET 0.000000 10.207942 -0.272212 
				CHANNELS 3 Xrotation Zrotation Yrotation
				JOINT head
				{
					OFFSET 0.000000 3.130431 0.000000 
					CHANNELS 3 Xrotation Zrotation Yrotation
					End Site
					{
						OFFSET 0.000000 3.130435 0.000000 
					}
				}
			}
			JOINT lCollar
			{
				OFFSET 3.470700 6.669187 -0.816635 
				CHANNELS 3 Yrotation Zrotation Xrotation
				JOINT lShldr
				{
					OFFSET 3.198488 0.000000 0.000000 
					CHANNELS 3 Zrotation Yrotation Xrotation
					JOINT lForeArm
					{
						OFFSET 10.139888 0.000000 0.000000 
						CHANNELS 3 Yrotation Zrotation Xrotation
						JOINT lHand
						{
							OFFSET 8.370511 0.000000 0.000000 
							CHANNELS 3 Zrotation Yrotation Xrotation
							End Site
							{
								OFFSET 4.083176 0.000000 0.000000 
							}
						}
					}
				}
			}
			JOINT rCollar
			{
				OFFSET -3.470700 6.669187 -0.816635 
				CHANNELS 3 Yrotation Zrotation Xrotation
				JOINT rShldr
				{
					OFFSET -3.198488 0.000000 0.000000 
					CHANNELS 3 Zrotation Yrotation Xrotation
					JOINT rForeArm
					{
						OFFSET -10.139888 0.000000 0.000000 
						CHANNELS 3 Yrotation Zrotation Xrotation
						JOINT rHand
						{
							OFFSET -8.370511 0.000000 0.000000 
							CHANNELS 3 Zrotation Yrotation Xrotation
							End Site
							{
								OFFSET -4.083176 0.000000 0.000000 
							}
						}
					}
				}
			}
		}
	}
	JOINT lThigh
	{
		OFFSET 5.308129 -1.633274 1.361059 
		CHANNELS 3 Xrotation Zrotation Yrotation
		JOINT lShin
		{
			OFFSET -2.041588 -20.007561 0.000000 
			CHANNELS 3 Xrotation Zrotation Yrotation
			JOINT lFoot
			{
				OFFSET 0.000000 -19.190928 -1.224953 
				CHANNELS 3 Xrotation Yrotation Zrotation
				End Site
				{
					OFFSET 0.000000 -2.449906 4.627600 
				}
			}
		}
	}
	JOINT rThigh
	{
		OFFSET -5.308129 -1.633274 1.361059 
		CHANNELS 3 Xrotation Zrotation Yrotation
		JOINT rShin
		{
			OFFSET 2.041588 -20.007561 0.000000 
			CHANNELS 3 Xrotation Zrotation Yrotation
			JOINT rFoot
			{
				OFFSET 0.000000 -19.190928 -1.224953 
				CHANNELS 3 Xrotation Yrotation Zrotation
				End Site
				{
					OFFSET 0.000000 -2.449906 4.627600 
				}
			}
		}
	}
}
MOTION
Frames: 16
Frame Time: 0.016667
-37.711491 43.553970 -15.525960 8.261718 -11.230470 58.134766 0.000000 0.000000 0.000000 4.707031 0.527344 1.621181 38.916016 -10.234376 3.797092 -13.408203 0.625000 -1.494141 5.878906 -25.000000 20.248268 -41.259769 -2.841797 -7.294923 -39.863277 0.576172 40.937397 22.900391 -10.859375 -10.372931 2.607422 25.000000 21.265402 21.083982 30.976564 38.144527 39.052738 -2.695313 20.703585 -30.791016 -1.933594 -8.301109 -53.978836 17.780127 11.960443 77.032013 -2.632745 11.483274 6.034916 0.286925 4.351278 -25.297071 -15.630219 -8.799664 50.020561 -2.988969 -7.371972 -24.436943 -1.202635 4.032623 
-36.361912 43.331108 -15.064981 7.802735 -11.621095 59.197258 0.000000 0.000000 0.000000 4.599609 0.742188 2.021480 38.310547 -10.810548 4.070434 -13.007813 1.494141 -2.705078 7.851562 -25.000000 20.000000 -40.117188 0.449219 -7.734375 -43.320313 0.507812 40.136635 24.140625 -10.468750 -10.538884 4.677734 24.999998 20.527344 21.386719 28.095701 34.301476 43.066406 -3.027344 22.011717 -30.927734 -2.060547 -8.281250 -56.362820 18.464518 10.117331 76.689903 -2.661916 11.019603 5.535239 0.305043 7.400335 -22.507359 -16.130514 -10.225846 49.260975 -2.920246 -6.157491 -25.243305 -1.607346 5.389409 
-34.291424 43.304054 -14.382323 7.246094 -11.855470 61.892532 0.000000 0.000000 0.000000 4.375000 0.810547 2.421875 38.398434 -9.609375 3.554688 -12.666015 1.982422 -4.345365 9.482422 -25.000000 19.228514 -38.105469 5.185547 -6.610446 -47.070309 0.332031 38.515541 23.779299 -10.839844 -10.558477 6.484375 25.000000 19.448997 22.578125 21.943359 28.828125 47.636719 -3.203125 21.992188 -31.826176 -2.646484 -8.193359 -57.575386 17.938459 7.085884 69.922142 -2.992362 9.457074 1.079689 -0.091648 5.793833 -17.342657 -16.756157 -11.828816 47.374165 -2.715334 -6.130775 -25.157936 -2.483763 8.451930 
-31.939083 43.360191 -13.796326 6.875000 -11.699219 66.814430 0.000000 0.000000 0.000000 4.150391 1.005859 2.480469 38.828125 -5.917970 1.444306 -12.216798 1.728516 -5.791015 8.320312 -25.000000 18.281250 -36.513672 8.095703 -5.283204 -47.861324 0.273438 37.451126 22.216797 -11.757813 -10.431677 5.458984 25.000000 18.769531 23.320311 14.316406 24.628908 50.429691 -3.183594 19.873589 -33.691402 -3.447266 -8.106056 -56.544231 14.518904 2.541000 56.378517 -3.411087 6.771857 -3.355431 0.023251 0.991856 -11.747959 -17.948540 -12.789448 46.795589 -2.714765 -5.372747 -22.394030 -2.981648 11.215351 
-29.258883 43.292503 -13.408756 6.650391 -11.240234 72.341843 0.000000 0.000000 0.000000 4.003906 1.396484 2.314691 39.150391 -2.041015 -1.006207 -11.894531 1.865234 -7.216440 5.585938 -25.000000 17.548828 -35.781250 8.164063 -4.794922 -45.927731 0.332031 38.066349 21.601563 -11.914062 -10.334045 2.978516 25.000000 18.452904 23.212889 6.416015 22.519533 50.839848 -2.998047 16.797527 -34.726563 -3.476563 -8.193358 -53.492195 9.989558 -2.651001 40.497795 -3.732921 5.575276 -2.382792 0.311182 -2.127463 -7.948159 -20.129539 -11.751482 49.189251 -2.734425 1.090088 -13.952427 -1.995963 11.062885 
-26.601803 43.072975 -13.135837 6.582031 -10.244142 76.131073 0.000000 0.000000 0.000000 4.023438 1.425781 1.953368 40.410160 0.800781 -2.470561 -12.177734 2.451172 -8.515625 3.642578 -25.000000 17.426004 -34.345703 5.908203 -4.061492 -43.105469 0.458984 39.609291 22.109375 -10.996094 -10.226473 0.966797 24.999998 18.574219 23.203125 -0.859375 22.548779 47.841797 -2.646484 13.769984 -33.994141 -2.480469 -8.457031 -49.981960 7.313560 -4.481602 30.726002 -3.549630 5.415055 2.370539 0.359899 -4.348808 -7.313376 -23.156675 -7.847126 54.738461 -2.967051 10.647492 -2.454569 -0.675053 8.676870 
-24.347424 42.629509 -12.857438 6.611328 -8.740067 78.201881 0.000000 0.000000 0.000000 4.228516 1.035156 1.377125 42.500000 4.003906 -3.300099 -12.851563 2.265625 -9.150390 2.578125 -25.000000 18.041237 -30.917969 1.289063 -2.743921 -39.892582 0.585938 40.957027 22.880859 -9.619140 -10.078124 -1.093750 25.000000 19.443359 23.046875 -6.005859 25.057573 40.673828 -2.353515 9.228517 -33.056641 -1.425781 -8.711181 -48.780884 7.010107 -0.903676 32.833530 -3.725460 2.146621 4.699360 0.319591 -6.763230 -10.370631 -26.531584 -2.364326 64.385857 -3.990799 13.713851 4.020223 -0.131732 5.355970 
-22.507906 41.969379 -12.645777 6.210938 -7.578125 79.861992 0.000000 0.000000 0.000000 4.482422 1.250000 0.703338 44.003902 8.486328 -4.365234 -13.808594 0.888672 -8.847505 0.673828 -25.000000 19.150389 -26.318359 -6.396484 -2.216797 -35.439453 0.742188 42.499939 23.320311 -8.320313 -9.873047 -4.804687 25.000000 21.206812 20.605469 -7.412108 29.335936 30.908205 -0.849609 2.109520 -33.212891 -0.830078 -8.915994 -50.061977 7.820991 2.707115 42.358627 -3.947518 -3.210281 2.127782 0.394682 -6.734493 -17.739277 -30.198603 3.617675 76.910904 -5.477747 6.640378 2.924414 -0.145914 1.014355 
-21.069542 41.401020 -12.515871 5.488281 -7.656250 81.318359 0.000000 0.000000 0.000000 4.814453 2.148437 -0.107422 44.716793 13.212892 -5.263671 -15.390624 -0.361328 -8.007874 -2.500000 -25.000000 21.000221 -21.894533 -16.289064 -3.378906 -30.244143 0.976563 45.068359 23.271484 -7.343750 -9.648438 -10.263672 25.000000 24.082029 21.074219 -6.933594 3.787884 11.289063 14.101563 24.433594 -33.632813 -0.068359 -9.208997 -52.122231 8.201708 3.078739 50.356129 -3.860835 -6.215719 -3.041520 0.401248 -4.277292 -30.496508 -33.426788 11.474193 86.876205 -6.161962 -3.192639 -1.240547 -0.039877 -1.043402 
-19.976316 41.141926 -12.241287 4.843750 -8.837891 82.158203 0.000000 0.000000 0.000000 5.312500 2.841797 -1.142094 45.322262 17.324219 -5.576171 -17.490234 -0.351562 -7.216797 -6.562500 -25.000000 23.789063 -17.646484 -25.927734 -6.386718 -26.601563 1.025391 48.740234 22.988281 -7.001954 -9.511720 -16.298828 25.000000 24.995871 16.728516 -4.726563 -26.933596 0.234375 14.150380 60.290600 -33.417969 0.820313 -9.482282 -53.710655 8.242377 2.057278 54.186260 -3.787119 -5.468809 -7.788358 0.343149 -3.005201 -46.747227 -33.466564 21.727192 89.968567 -6.269573 -5.662951 -3.357367 -0.066695 -0.587332 
-18.986065 40.927647 -11.804700 4.306641 -10.449220 82.822266 0.000000 0.000000 0.000000 5.751953 3.369141 -2.362707 45.585938 21.474607 -6.132812 -19.707031 0.537109 -6.650391 -12.148438 -23.183594 25.000000 -12.666015 -33.466797 -10.610851 -25.566406 1.054688 52.284889 23.046877 -7.275390 -9.591078 -22.177734 25.000000 24.995871 17.832031 -4.453125 -29.482420 -0.742188 12.177735 70.087891 -32.910156 0.800781 -9.404297 -55.312653 8.603694 1.022417 57.123882 -3.717732 -4.380188 -11.039950 0.353900 -3.045190 -61.273457 -30.068491 31.294977 85.297539 -6.043575 0.715436 -2.933410 -0.005708 -1.014835 
-17.981869 40.528645 -11.408407 4.433594 -12.099608 83.454987 0.000000 0.000000 0.000000 5.898438 3.779297 -3.446622 44.912109 25.458986 -7.691115 -21.992186 1.464844 -6.181391 -19.072266 -18.750000 25.000000 -6.894531 -39.013668 -15.332033 -25.634768 1.240234 55.166016 23.662109 -7.685547 -9.796228 -27.685545 25.000000 24.995872 19.648438 -6.230469 -27.628014 -0.273438 12.529306 74.304504 -32.226563 0.449219 -9.208985 -57.463032 8.826999 0.820368 61.056713 -3.608559 -5.342859 -13.646379 0.347427 -2.641198 -72.642097 -26.280277 38.985641 73.658981 -5.035400 8.371275 -1.313961 -0.041980 -0.425589 
-16.736095 40.053108 -10.951514 5.927734 -13.388673 83.154297 0.000000 0.000000 0.000000 5.800781 3.486328 -4.648438 44.150391 27.246094 -9.472657 -24.150391 2.480469 -5.800781 -24.921875 -15.390624 25.000000 -1.054688 -43.642578 -20.996096 -25.830076 1.494141 58.085686 24.697266 -8.007813 -10.059956 -31.123045 25.000000 24.995872 22.031250 -8.583983 -23.427732 0.576172 13.759766 75.302734 -30.683594 1.367188 -9.286875 -58.711788 9.050964 2.386263 65.119446 -3.462763 -6.461607 -17.058521 0.106114 -1.479783 -81.000854 -23.546659 41.262619 57.774269 -3.343889 11.319432 2.838475 -0.216817 3.948866 
-15.163061 39.703568 -10.367992 8.212891 -13.125000 81.960670 0.000000 0.000000 0.000000 5.742188 2.666016 -5.927735 45.126953 27.236330 -10.893967 -25.517578 3.564453 -5.458984 -28.330078 -14.248047 25.000000 3.193359 -47.988277 -26.201174 -27.070311 1.787109 60.068050 25.595699 -8.486328 -10.351562 -32.861328 25.000000 24.995869 24.912109 -10.156250 -9.619140 4.423828 15.156250 68.893936 -28.349609 2.822266 -9.375002 -56.942390 9.902170 5.634653 68.279724 -3.335373 -6.698013 -21.022263 -0.162116 -0.525411 -83.922592 -20.850431 32.631817 45.378250 -2.206820 10.192773 10.613343 0.238633 8.428342 
-13.684536 39.433144 -9.644319 9.853516 -10.498047 81.699219 0.000000 0.000000 0.000000 6.025391 2.050781 -6.533204 47.568359 28.515623 -13.442604 -25.556643 3.896484 -5.058594 -30.751953 -15.712890 25.000000 3.095703 -52.744141 -26.689455 -29.687500 1.855469 60.136402 25.546875 -8.779297 -10.419922 -35.302734 25.000000 24.995871 30.957033 -14.902343 25.554131 11.894532 15.263673 42.790398 -26.210938 3.437500 -9.228515 -52.563793 10.779519 8.460131 70.692902 -3.278543 -8.891925 -23.137321 -0.029934 -1.117341 -80.110291 -17.637266 17.732929 42.378204 -2.099338 5.461994 17.030165 0.392454 3.386106 
-12.387398 39.056900 -8.541809 11.083985 -6.679688 83.651207 0.000000 0.000000 0.000000 6.318359 1.611328 -6.552734 48.720707 31.250000 -17.739075 -24.716799 3.320313 -5.009765 -32.871094 -19.179688 25.000000 -3.906250 -57.939457 -17.431639 -32.832031 1.767578 59.707027 24.863281 -8.652344 -10.255373 -37.177738 25.000000 25.000000 35.517582 -19.296875 58.766304 23.388672 4.863281 13.466798 -24.013672 4.687500 -9.188654 -48.082146 11.199753 9.081108 73.191826 -3.298979 -13.842573 -22.916388 0.543686 -3.266468 -71.812889 -14.648015 6.197018 44.342506 -2.311454 1.843013 12.383358 -0.832079 -9.913474 
